<svg width="72" height="71" viewBox="0 0 72 71" fill="none" xmlns="http://www.w3.org/2000/svg">
<ellipse cx="2.31714" cy="69.0476" rx="1.53983" ry="1.53443" transform="rotate(-90 2.31714 69.0476)" fill="#3758F9"/>
<ellipse cx="2.31714" cy="28.7039" rx="1.53983" ry="1.53443" transform="rotate(-90 2.31714 28.7039)" fill="#3758F9"/>
<ellipse cx="15.8205" cy="69.0476" rx="1.53983" ry="1.53443" transform="rotate(-90 15.8205 69.0476)" fill="#3758F9"/>
<ellipse cx="15.8205" cy="28.7039" rx="1.53983" ry="1.53443" transform="rotate(-90 15.8205 28.7039)" fill="#3758F9"/>
<ellipse cx="29.3229" cy="69.0476" rx="1.53983" ry="1.53443" transform="rotate(-90 29.3229 69.0476)" fill="#3758F9"/>
<ellipse cx="29.3229" cy="28.7039" rx="1.53983" ry="1.53443" transform="rotate(-90 29.3229 28.7039)" fill="#3758F9"/>
<ellipse cx="42.8263" cy="69.0476" rx="1.53983" ry="1.53443" transform="rotate(-90 42.8263 69.0476)" fill="#3758F9"/>
<ellipse cx="42.8263" cy="28.7039" rx="1.53983" ry="1.53443" transform="rotate(-90 42.8263 28.7039)" fill="#3758F9"/>
<ellipse cx="2.31714" cy="55.4972" rx="1.53983" ry="1.53443" transform="rotate(-90 2.31714 55.4972)" fill="#3758F9"/>
<ellipse cx="15.8205" cy="55.4972" rx="1.53983" ry="1.53443" transform="rotate(-90 15.8205 55.4972)" fill="#3758F9"/>
<ellipse cx="29.3229" cy="55.4972" rx="1.53983" ry="1.53443" transform="rotate(-90 29.3229 55.4972)" fill="#3758F9"/>
<ellipse cx="42.8263" cy="55.4972" rx="1.53983" ry="1.53443" transform="rotate(-90 42.8263 55.4972)" fill="#3758F9"/>
<ellipse cx="2.31714" cy="41.9464" rx="1.53983" ry="1.53443" transform="rotate(-90 2.31714 41.9464)" fill="#3758F9"/>
<ellipse cx="15.8205" cy="41.9464" rx="1.53983" ry="1.53443" transform="rotate(-90 15.8205 41.9464)" fill="#3758F9"/>
<ellipse cx="29.3229" cy="41.9464" rx="1.53983" ry="1.53443" transform="rotate(-90 29.3229 41.9464)" fill="#3758F9"/>
<ellipse cx="42.8263" cy="41.9464" rx="1.53983" ry="1.53443" transform="rotate(-90 42.8263 41.9464)" fill="#3758F9"/>
</svg>
