<svg width="18" height="18" viewBox="0 0 18 18" fill="none" xmlns="http://www.w3.org/2000/svg">
<g clip-path="url(#clip0_7_232)">
<path d="M15.8625 17.5219H12.1782C11.2782 17.5219 10.5188 16.7906 10.5188 15.8625V12.8812C10.5188 12.6562 10.35 12.4875 10.125 12.4875H7.87502C7.65002 12.4875 7.48128 12.6562 7.48128 12.8812V15.8625C7.48128 16.7906 6.75003 17.5219 5.8219 17.5219H2.13752C1.23752 17.5219 0.478149 16.7906 0.478149 15.8625V6.38437C0.478149 5.90625 0.703149 5.48437 1.0969 5.23125L8.26877 0.703125C8.71877 0.421875 9.28127 0.421875 9.70315 0.703125L16.875 5.25937C17.2688 5.5125 17.4938 5.93437 17.4938 6.4125V15.8625C17.5219 16.7625 16.7625 17.5219 15.8625 17.5219ZM7.87502 11.2219H10.125C11.0532 11.2219 11.7844 11.9531 11.7844 12.8812V15.8625C11.7844 16.0875 11.9531 16.2562 12.1782 16.2562H15.8625C16.0875 16.2562 16.2563 16.0875 16.2563 15.8625V6.38437C16.2563 6.35625 16.2282 6.32812 16.2282 6.3L9.02815 1.77187C9.00002 1.74375 8.9719 1.74375 8.94378 1.77187L1.80002 6.3C1.7719 6.32812 1.74377 6.35625 1.74377 6.38437V15.8625C1.74377 16.0875 1.91252 16.2562 2.13752 16.2562H5.8219C6.0469 16.2562 6.21565 16.0875 6.21565 15.8625V12.8812C6.21565 11.9812 6.9469 11.2219 7.87502 11.2219Z" fill="#005F78"/>
</g>
<defs>
<clipPath id="clip0_7_232">
<rect width="18" height="18" fill="white"/>
</clipPath>
</defs>
</svg>
