<svg width="48" height="52" viewBox="0 0 48 52" fill="none" xmlns="http://www.w3.org/2000/svg">
<path d="M45.3494 36.1851L45.0821 36.0132C44.3694 35.5835 43.5675 35.2397 41.6965 34.724H41.6074C40.9838 34.638 40.271 34.3802 40.0037 34.2083L39.9146 34.1223C39.5582 33.7785 39.291 33.1769 39.291 32.4893C39.291 31.8876 39.5582 31.286 39.9146 30.8562L43.3893 27.5041C49.5369 21.5736 49.5369 12.205 43.3893 6.18843C39.291 2.14876 33.5889 0 27.2631 0C20.2246 0 13.097 2.92231 7.66218 8.07934C2.67285 12.9785 0 19.3388 0 26.3008C0 33.2628 2.76195 39.7091 7.84037 44.4364C12.9188 49.3355 19.6009 52 26.7285 52C33.7671 52 40.4492 49.2496 45.5276 44.3504C46.5968 43.319 47.2204 41.7719 47.2204 40.3107C47.2204 38.6777 46.5077 37.1306 45.3494 36.1851ZM42.6766 41.6C38.4 45.8116 32.6979 48.1322 26.7285 48.1322C20.581 48.1322 15.0571 45.8975 10.6914 41.6859C6.41485 37.6463 4.00928 32.2314 4.00928 26.3008C4.00928 20.3702 6.32575 15.0413 10.6023 10.8298C15.3244 6.36033 21.3828 3.78182 27.4413 3.78182C32.6979 3.78182 37.3309 5.50083 40.7165 8.85289C45.3494 13.4083 45.3494 20.2843 40.7165 24.7537L37.1527 28.1917C36.0835 29.3091 35.4599 30.8562 35.4599 32.4893C35.4599 34.2083 36.0835 35.6694 37.1527 36.7868C38.2218 37.9041 40.3601 38.4198 40.8947 38.5058C42.142 38.7636 42.5875 39.0215 42.9439 39.1934C43.122 39.4512 43.3002 39.881 43.3002 40.3107C43.2111 40.7405 42.9439 41.3421 42.6766 41.6Z" fill="#0092B8"/>
<path d="M28.3322 29.9967C27.0849 29.9967 26.1049 30.9422 26.1049 32.1455C26.1049 33.3488 27.0849 34.2942 28.3322 34.2942C29.5796 34.2942 30.5596 33.3488 30.5596 32.1455C30.5596 30.9422 29.5796 29.9967 28.3322 29.9967Z" fill="#0092B8"/>
<path d="M38.0436 21.9173C38.0436 19.0809 35.638 16.6743 32.6088 16.6743C29.5796 16.6743 27.174 18.995 27.174 21.9173C27.174 24.7537 29.5796 27.1603 32.6088 27.1603C35.638 27.1603 38.0436 24.8396 38.0436 21.9173ZM32.6088 23.2925C31.807 23.2925 31.1833 22.6908 31.1833 21.9173C31.1833 21.1437 31.807 20.5421 32.6088 20.5421C33.4107 20.5421 34.0343 21.1437 34.0343 21.9173C34.0343 22.6908 33.4107 23.2925 32.6088 23.2925Z" fill="#0092B8"/>
<path d="M28.7777 12.8066C28.7777 9.36859 25.8376 6.53223 22.2738 6.53223C18.71 6.53223 15.7698 9.36859 15.7698 12.8066C15.7698 16.2446 18.71 19.081 22.2738 19.081C25.8376 19.081 28.7777 16.3306 28.7777 12.8066ZM22.2738 15.2992C20.8483 15.2992 19.7791 14.1818 19.7791 12.8926C19.7791 11.5174 20.9374 10.4859 22.2738 10.4859C23.6102 10.4859 24.7684 11.6033 24.7684 12.8926C24.7684 14.1818 23.6993 15.2992 22.2738 15.2992Z" fill="#0092B8"/>
</svg>
