<svg width="150" height="24" viewBox="0 0 150 24" fill="none" xmlns="http://www.w3.org/2000/svg">
  <path d="M10.2 19L6.552 7.304H6.456L2.808 19H0.36L5.04 4.6H7.968L12.648 19H10.2ZM19.0235 19.24C17.8075 19.24 16.7475 18.976 15.8435 18.448C14.9395 17.904 14.2355 17.144 13.7315 16.168C13.2275 15.176 12.9755 14.024 12.9755 12.712C12.9755 11.4 13.2275 10.256 13.7315 9.28C14.2355 8.288 14.9395 7.528 15.8435 7C16.7475 6.456 17.8075 6.184 19.0235 6.184C20.2395 6.184 21.2995 6.456 22.2035 7C23.1075 7.528 23.8115 8.288 24.3155 9.28C24.8195 10.256 25.0715 11.4 25.0715 12.712C25.0715 14.024 24.8195 15.176 24.3155 16.168C23.8115 17.144 23.1075 17.904 22.2035 18.448C21.2995 18.976 20.2395 19.24 19.0235 19.24ZM19.0235 17.08C19.8315 17.08 20.5195 16.896 21.0875 16.528C21.6715 16.16 22.1115 15.648 22.4075 14.992C22.7195 14.32 22.8755 13.56 22.8755 12.712C22.8755 11.864 22.7195 11.112 22.4075 10.456C22.1115 9.784 21.6715 9.264 21.0875 8.896C20.5195 8.528 19.8315 8.344 19.0235 8.344C18.2155 8.344 17.5195 8.528 16.9355 8.896C16.3675 9.264 15.9275 9.784 15.6155 10.456C15.3195 11.112 15.1715 11.864 15.1715 12.712C15.1715 13.56 15.3195 14.32 15.6155 14.992C15.9275 15.648 16.3675 16.16 16.9355 16.528C17.5195 16.896 18.2155 17.08 19.0235 17.08ZM32.3716 19.24C31.1556 19.24 30.0956 18.976 29.1916 18.448C28.2876 17.904 27.5836 17.144 27.0796 16.168C26.5756 15.176 26.3236 14.024 26.3236 12.712C26.3236 11.4 26.5756 10.256 27.0796 9.28C27.5836 8.288 28.2876 7.528 29.1916 7C30.0956 6.456 31.1556 6.184 32.3716 6.184C33.5876 6.184 34.6476 6.456 35.5516 7C36.4556 7.528 37.1596 8.288 37.6636 9.28C38.1676 10.256 38.4196 11.4 38.4196 12.712C38.4196 14.024 38.1676 15.176 37.6636 16.168C37.1596 17.144 36.4556 17.904 35.5516 18.448C34.6476 18.976 33.5876 19.24 32.3716 19.24ZM32.3716 17.08C33.1796 17.08 33.8676 16.896 34.4356 16.528C35.0196 16.16 35.4596 15.648 35.7556 14.992C36.0676 14.32 36.2236 13.56 36.2236 12.712C36.2236 11.864 36.0676 11.112 35.7556 10.456C35.4596 9.784 35.0196 9.264 34.4356 8.896C33.8676 8.528 33.1796 8.344 32.3716 8.344C31.5636 8.344 30.8676 8.528 30.2836 8.896C29.7156 9.264 29.2756 9.784 28.9636 10.456C28.6676 11.112 28.5196 11.864 28.5196 12.712C28.5196 13.56 28.6676 14.32 28.9636 14.992C29.2756 15.648 29.7156 16.16 30.2836 16.528C30.8676 16.896 31.5636 17.08 32.3716 17.08ZM40.7197 19V6.424H42.7997V8.536H42.8957C43.1117 7.816 43.5197 7.248 44.1197 6.832C44.7197 6.4 45.4157 6.184 46.2077 6.184C47.0477 6.184 47.7677 6.416 48.3677 6.88C48.9677 7.328 49.3517 7.936 49.5197 8.704H49.6157C49.8477 7.952 50.2877 7.344 50.9357 6.88C51.5997 6.416 52.3917 6.184 53.3117 6.184C54.4957 6.184 55.4477 6.576 56.1677 7.36C56.8877 8.128 57.2477 9.24 57.2477 10.696V19H55.0517V10.936C55.0517 10.008 54.8197 9.312 54.3557 8.848C53.8917 8.384 53.2917 8.152 52.5557 8.152C51.6677 8.152 50.9757 8.44 50.4797 9.016C49.9837 9.576 49.7357 10.296 49.7357 11.176V19H47.5397V10.816C47.5397 9.984 47.3157 9.328 46.8677 8.848C46.4197 8.368 45.8277 8.128 45.0917 8.128C44.5637 8.128 44.0917 8.272 43.6757 8.56C43.2757 8.832 42.9557 9.216 42.7157 9.712C42.4757 10.208 42.3557 10.784 42.3557 11.44V19H40.7197ZM65.7831 19.24C64.5671 19.24 63.5071 18.976 62.6031 18.448C61.6991 17.904 60.9951 17.144 60.4911 16.168C59.9871 15.176 59.7351 14.024 59.7351 12.712C59.7351 11.4 59.9871 10.256 60.4911 9.28C60.9951 8.288 61.6991 7.528 62.6031 7C63.5071 6.456 64.5671 6.184 65.7831 6.184C66.9991 6.184 68.0591 6.456 68.9631 7C69.8671 7.528 70.5711 8.288 71.0751 9.28C71.5791 10.256 71.8311 11.4 71.8311 12.712C71.8311 14.024 71.5791 15.176 71.0751 16.168C70.5711 17.144 69.8671 17.904 68.9631 18.448C68.0591 18.976 66.9991 19.24 65.7831 19.24ZM65.7831 17.08C66.5911 17.08 67.2791 16.896 67.8471 16.528C68.4311 16.16 68.8711 15.648 69.1671 14.992C69.4791 14.32 69.6351 13.56 69.6351 12.712C69.6351 11.864 69.4791 11.112 69.1671 10.456C68.8711 9.784 68.4311 9.264 67.8471 8.896C67.2791 8.528 66.5911 8.344 65.7831 8.344C64.9751 8.344 64.2791 8.528 63.6951 8.896C63.1271 9.264 62.6871 9.784 62.3751 10.456C62.0791 11.112 61.9311 11.864 61.9311 12.712C61.9311 13.56 62.0791 14.32 62.3751 14.992C62.6871 15.648 63.1271 16.16 63.6951 16.528C64.2791 16.896 64.9751 17.08 65.7831 17.08ZM74.1312 19V6.424H76.2112V8.536H76.3072C76.5232 7.816 76.9312 7.248 77.5312 6.832C78.1312 6.4 78.8272 6.184 79.6192 6.184C80.4592 6.184 81.1792 6.416 81.7792 6.88C82.3792 7.328 82.7632 7.936 82.9312 8.704H83.0272C83.2592 7.952 83.6992 7.344 84.3472 6.88C85.0112 6.416 85.8032 6.184 86.7232 6.184C87.9072 6.184 88.8592 6.576 89.5792 7.36C90.2992 8.128 90.6592 9.24 90.6592 10.696V19H88.4632V10.936C88.4632 10.008 88.2312 9.312 87.7672 8.848C87.3032 8.384 86.7032 8.152 85.9672 8.152C85.0792 8.152 84.3872 8.44 83.8912 9.016C83.3952 9.576 83.1472 10.296 83.1472 11.176V19H80.9512V10.816C80.9512 9.984 80.7272 9.328 80.2792 8.848C79.8312 8.368 79.2392 8.128 78.5032 8.128C77.9752 8.128 77.5032 8.272 77.0872 8.56C76.6872 8.832 76.3672 9.216 76.1272 9.712C75.8872 10.208 75.7672 10.784 75.7672 11.44V19H74.1312Z" fill="#111928"/>
</svg>
